<?xml version="1.0" encoding="UTF-8"?>
<svg id="Layer_1" xmlns="http://www.w3.org/2000/svg" version="1.1" viewBox="0 0 20 20">
  <!-- Generator: Adobe Illustrator 30.2.1, SVG Export Plug-In . SVG Version: 2.1.1 Build 1)  -->
  <path d="M8.19,14.12l-.79-.12c-.06.12-.16.22-.27.25-.15.04-.27.01-.38-.08l-1.25,1-.33.26-.68.53c.1.21.04.44-.15.54s-.43.07-.55-.12l-2.26.94c.03.26-.17.47-.42.46s-.44-.26-.37-.51.33-.38.57-.26l.47-.53,1.18-1.33.7-.8.6-.69s.02-.03.02-.04c0-.01-.02-.03-.04-.02l-.49.17-1.92.63c0,.15-.05.28-.14.36-.11.09-.26.13-.4.07-.23-.09-.33-.35-.23-.57s.38-.3.59-.16c.12-.13.24-.24.36-.36l1.19-1.18,1.09-1.07c-.1-.18-.08-.39.07-.52s.34-.16.52-.04l1.19-1.18.5-.49.55-.54c-.1-.18-.08-.39.06-.53s.36-.15.53-.04l1.31-1.11,1.05-.9.44-.39c-.06-.16-.05-.32.06-.44.1-.11.25-.17.41-.13l.71-1.37.61-1.16c-.2-.17-.19-.45,0-.62s.47-.13.61.09l1.42-.59c-.03-.25.15-.45.39-.46s.43.2.4.46c.32.15.6.24.94.4.11-.15.28-.22.45-.17s.3.21.28.41l1.21.45.63.24c.17-.21.46-.23.64-.03.11.13.13.32.05.47-.07.12-.2.19-.32.2-.15.01-.27-.06-.37-.16-.04-.03-.11.02-.15.04l-1.23.42-.76.25c0,.22-.13.4-.34.45l-.1,1.73-.08,1.42c0,.12,0,.22-.02.34.22.06.35.27.3.48s-.26.36-.5.31l-.75,1.42-.7,1.35c.19.16.2.41.04.58-.15.16-.4.18-.58.01l-1.88,1.26-.35.23c.08.19.01.4-.17.51l.87,2.59,1.71.53c.11-.22.37-.29.57-.17s.26.38.12.58c-.1.14-.26.2-.42.16-.14-.04-.26-.16-.3-.32h-1.49c-.04.21-.19.34-.37.35-.2,0-.37-.12-.41-.33h-2.02c-.04.18-.18.32-.35.33-.2.02-.37-.1-.42-.27-.06-.19,0-.38.17-.47s.36-.07.51.08l.61-.34-1.11-1.32c-.21.11-.42.06-.54-.12-.12-.17-.09-.39.08-.53l-.36-.78ZM14.31,2.87c.07-.11.15-.16.26-.19l.03-.78c-.09-.04-.17-.09-.24-.18l-1.36.58s-.05.02-.05.04-.01.06.01.07l1.35.47ZM14.99,2.81l1-.54s.02-.13,0-.16l-.93-.39c-.08.09-.16.14-.28.17l-.03.78c.09.03.16.07.24.14ZM17.24,3.02c.42,0,.83.02,1.24,0l-1.75-.65c-.07.13-.19.2-.34.21l-.07.43h.91ZM16.16,3.01l.07-.45c-.07-.04-.12-.08-.18-.14l-1.01.55c.06.05.12.04.18.04h.94ZM13.79,5l.64-1.59c-.13-.1-.19-.23-.17-.39l-1.35-.46c-.05.08-.1.12-.15.17l.14.35.74,1.92h.15ZM12.11,5.43l1.2-.08c.02-.12.08-.2.17-.28-.03-.1-.06-.17-.1-.26l-.78-2.01c-.05,0-.12-.03-.16-.01l-.54,1.01-.41.79-.37.7c.06.07.11.13.14.22l.85-.07ZM16.05,3.69l.08-.51h-1.04s-.04,0-.04.02c0,0-.02.02,0,.04l.73.58c.08-.06.17-.08.27-.11ZM16.8,3.79l1.71-.6h-2.22s-.1.54-.1.54c.09.04.16.1.22.19.13-.07.24-.08.38-.13ZM15.16,4.51l.5-.29c-.01-.11,0-.19.02-.3-.24-.17-.46-.35-.69-.53-.11-.09-.11.12-.41.08l-.6,1.48s-.05.1-.02.12c.02.01.06.08.09.06l1.11-.62ZM15.62,7.98s.04.06.08.05c.03,0,.06-.03.06-.07l.1-1.81.09-1.64c-.09-.03-.15-.08-.21-.14l-1.63.92c.04.14,0,.26-.11.37l.99,1.4.64.9ZM12.91,7.4c.1-.07.16-.08.25-.08l.37-1.55c-.11-.06-.17-.15-.22-.26l-1.23.09-.82.06c0,.07-.03.11-.06.16l1.35,1.26.35.33ZM15.44,8.24s.09-.09.07-.12l-.74-1.04-.91-1.3c-.07.02-.11.02-.17.03l-.37,1.56c.15.07.23.19.24.36l1.88.51ZM7.92,8.37l2.31-.32.45-2.03c.01-.06-.04-.09-.09-.09l-.53.46-.8.68-1.45,1.23s.01.05.02.07c.01.02.03.01.08,0ZM12.8,7.52l-.4-.37-.44-.4-.87-.81c-.08.06-.14.07-.23.08l-.44,2.01,2.32-.32c.02-.07.03-.12.06-.19ZM9.66,11.5l1.56-1.74.42-.46,1.16-1.31s-.03-.1-.06-.1c-.16.02-.31.04-.47.06l-1.9.26-.31,1.4-.4,1.89ZM14.14,11.48l.66-1.26.78-1.48c-.09-.09-.15-.19-.15-.32l-1.88-.51c-.06.1-.12.16-.21.22l.7,3.35s.09.04.11.01ZM9.81,11.61c.12.16.1.34-.01.49l.26.32.88,1.03c.09-.04.16-.04.24-.05l1.21-3.63.56-1.67c-.15.1-.23.25-.34.37l-.78.86-.37.41-.42.47-.98,1.1-.26.3ZM13.65,12.02c-.07-.21.02-.41.21-.51l-.59-2.84c-.04-.19-.06-.36-.14-.55l-.58,1.71-1.19,3.58c-.02.05,0,.06.05.09.03.01.06,0,.09-.03l1.32-.89.83-.56ZM9.33,11.44c.07,0,.11,0,.17-.01l.47-2.1c.04-.17.07-.32.1-.49l.12-.6-2.33.33c-.01.11-.06.18-.12.26.11.2.23.39.35.58l.23.37,1.02,1.67ZM5.1,11.13l1.5-.25c.01-.21.17-.37.38-.39l.31-1.56s-.07-.07-.09-.05l-.47.46-.44.44-1.25,1.24s-.07.05-.05.09.05.04.1.03ZM9.13,11.62s.07-.06.06-.08l-.69-1.14-.91-1.47s-.12-.01-.13.02l-.32,1.55c.18.07.26.21.28.39,0,.05.09.06.13.08l1.58.65ZM4.84,13.05c.16-.16.3-.31.45-.47l1.37-1.45s-.03-.1-.07-.09l-1.55.27c-.02.19-.14.33-.33.39l.02,1.31s.1.06.12.04ZM6.85,12.58l1.66-.55.54-.18s.03-.03.03-.05c0-.02-.02-.03-.04-.04l-1.66-.69c-.13.2-.38.28-.58.15l-1.12,1.18-.72.79,1.9-.62ZM3.08,13.82l1.14-.39c0-.21.13-.38.33-.42l-.02-1.31c-.05-.02-.1-.06-.15-.05l-.39.38-1.02,1.02-1.22,1.2,1.32-.42ZM6.64,13.7c.12-.25.41-.33.62-.17l1.16-.95c.23-.19.45-.35.68-.57l-1.71.56-2.36.79c.03.07.1.05.15.06l1.46.27ZM8.91,14.06c.03-.16.11-.24.23-.3l.18-1.52s-.07-.05-.11-.07l-.34.27-1.48,1.21s.02.14.04.19l1.47.23ZM10.05,14.35l.69-.43c-.03-.13-.01-.25.07-.36l-.66-.77c-.17-.2-.31-.4-.49-.58-.06.02-.11.03-.17.04l-.19,1.46c.2.02.35.16.36.35l.39.28ZM4.89,15.43l.34-.27,1.41-1.13c-.03-.06-.03-.11-.04-.18l-1.59-.3c-.07.16-.2.26-.38.27l-.35,1.94s.09.06.11.05l.5-.39ZM1.51,17.14l2.21-.92c-.03-.25.13-.46.39-.48l.35-1.9s0-.06-.03-.06c-.01,0-.05,0-.06,0l-.64.74-.65.74-1.42,1.62s-.32.31-.14.25ZM10.7,14.74l.22-.57s-.06-.06-.11-.08l-.63.38c.11.09.2.18.3.29h.21ZM9.02,14.4l-.1-.17c-.18-.02-.34-.07-.53-.07l.3.66c.06,0,.11,0,.18,0l.15-.4ZM11.93,16.48l-.72-2.18c-.01-.06-.04-.08-.08-.08s-.07.03-.08.08l-.19.52c.19.14.23.4.08.58l1,1.07ZM9.57,14.64l.31-.19c-.08-.08-.16-.12-.25-.19-.04.08-.08.12-.14.18.03.07.04.14.08.2ZM9.42,14.74c-.03-.09-.05-.16-.09-.23l-.18-.02c-.04.13-.09.24-.13.37,0,.03.05.09.07.08.11-.05.2-.12.32-.19ZM12.04,17.07c0-.06.05-.15.01-.2l-1.25-1.37c-.19.11-.41.04-.53-.12s-.08-.38.07-.53l-.31-.29-.42.26.43,1.24.26.77,1.35.46c.09-.14.21-.2.38-.2ZM9.3,15.66l.73.84-.56-1.6-.3.19c.03.13.01.24-.05.35.06.08.11.14.17.22ZM12.4,17.37h1.21s-1.37-.43-1.37-.43c-.01.07-.03.12-.03.19.09.06.15.13.19.24ZM9.59,17.38h1.84s-1.04-.36-1.04-.36c0,.05,0,.09-.02.12-.02.02-.07.02-.11,0-.02-.01-.03-.05-.05-.12l-.61.35Z"/>
</svg>